<?xml version="1.0" encoding="UTF-8"?>
<!DOCTYPE svg PUBLIC "-//W3C//DTD SVG 1.1//EN" "http://www.w3.org/Graphics/SVG/1.1/DTD/svg11.dtd">
<svg xmlns="http://www.w3.org/2000/svg" version="1.1" width="512px" height="512px" style="shape-rendering:geometricPrecision; text-rendering:geometricPrecision; image-rendering:optimizeQuality; fill-rule:evenodd; clip-rule:evenodd" xmlns:xlink="http://www.w3.org/1999/xlink">
<g><path style="opacity:1" fill="#5285c5" d="M 123.5,9.5 C 134.998,9.72208 146.331,11.2221 157.5,14C 178.227,20.1312 198.894,26.4645 219.5,33C 242.504,38.9747 265.504,38.9747 288.5,33C 303.682,28.9393 318.682,24.2726 333.5,19C 348.473,14.1719 363.806,11.3386 379.5,10.5C 403.938,10.7258 424.938,19.2258 442.5,36C 489.16,78.3105 501.993,129.477 481,189.5C 474.619,209.262 467.953,228.929 461,248.5C 458.355,257.079 456.022,265.746 454,274.5C 453.528,318.166 449.528,361.499 442,404.5C 438.099,425.443 431.433,445.443 422,464.5C 414.932,477.569 405.098,488.069 392.5,496C 367.06,504.765 345.56,498.931 328,478.5C 318.341,465.557 311.341,451.223 307,435.5C 301.51,413.875 296.177,392.209 291,370.5C 288.456,361.982 285.456,353.649 282,345.5C 272.028,326.733 257.528,322.233 238.5,332C 232.68,336.802 228.18,342.635 225,349.5C 221.274,358.01 217.941,366.677 215,375.5C 207.952,401.693 200.285,427.693 192,453.5C 185.981,470.499 175.815,484.333 161.5,495C 138.133,506.298 118.3,501.798 102,481.5C 86.224,458.861 75.8906,433.861 71,406.5C 62.7992,363.225 58.4659,319.559 58,275.5C 56.8243,269.797 55.4909,264.13 54,258.5C 42.9294,228.955 33.2627,198.955 25,168.5C 12.7938,106.778 32.2938,57.9449 83.5,22C 95.9664,14.5749 109.3,10.4082 123.5,9.5 Z M 116.5,32.5 C 129.343,31.8259 142.01,32.9926 154.5,36C 175.106,42.5355 195.773,48.8688 216.5,55C 240.103,61.613 263.769,61.9463 287.5,56C 305.347,51.2734 323.013,45.9401 340.5,40C 381.299,24.2804 415.465,33.1138 443,66.5C 465.334,94.1461 472.668,125.479 465,160.5C 458.681,188.123 450.348,215.123 440,241.5C 436.709,251.331 434.042,261.331 432,271.5C 430.493,299.168 428.826,326.835 427,354.5C 424.579,383.941 418.579,412.608 409,440.5C 404.648,454.493 396.815,465.993 385.5,475C 369.286,480.655 355.453,477.155 344,464.5C 336.775,453.043 331.442,440.71 328,427.5C 322.667,406.167 317.333,384.833 312,363.5C 307.814,347.128 300.481,332.461 290,319.5C 271.18,302.082 250.68,299.915 228.5,313C 219.529,319.634 212.362,327.801 207,337.5C 201.886,347.508 197.553,357.841 194,368.5C 186.468,396.428 178.135,424.095 169,451.5C 166.174,457.822 162.841,463.822 159,469.5C 141.077,483.697 126.077,481.03 114,461.5C 104.577,444.569 97.9103,426.569 94,407.5C 85.0597,362.611 80.393,317.277 80,271.5C 74.2699,248.31 66.9365,225.643 58,203.5C 54.2617,192.285 50.9284,180.952 48,169.5C 35.1107,119.509 48.2774,78.0089 87.5,45C 96.4574,38.9663 106.124,34.7997 116.5,32.5 Z"/></g>
</svg>
